<svg xmlns="http://www.w3.org/2000/svg" viewBox="0 0 64 64">
  <defs><clipPath id="c"><circle cx="32" cy="32" r="30"/></clipPath></defs>
  <circle cx="32" cy="32" r="31" fill="#fff" stroke="#e5eaf5" stroke-width="2"/>
  <g clip-path="url(#c)">
    <path fill="#012169" d="M0 0h64v64H0z"/>
    <path fill="#fff" d="M0 0h31v6L6 32H0v-6L25 0h6v31h-6L0 6z"/>
    <path fill="#c8102e" d="M0 0h27v4L4 28H0v-4L23 0h4v27h-4L0 4z"/>
    <path fill="#fff" d="M12 0h7v32h-7zM0 12h31v7H0z"/>
    <path fill="#c8102e" d="M14 0h3v32h-3zM0 14h31v3H0z"/>
    <g fill="#c8102e" stroke="#fff" stroke-width="1.4">
      <path d="m47 14 1.5 4.4h4.7l-3.8 2.7 1.5 4.4-3.9-2.7-3.8 2.7 1.5-4.4-3.8-2.7h4.7z"/>
      <path d="m52 32 1.2 3.5h3.7l-3 2.2 1.2 3.5-3.1-2.1-3 2.1 1.2-3.5-3-2.2h3.7z"/>
      <path d="m40 35 1.2 3.5h3.7l-3 2.2 1.2 3.5-3.1-2.1-3 2.1 1.2-3.5-3-2.2h3.7z"/>
      <path d="m48 48 1.1 3.3h3.5l-2.8 2 1.1 3.3-2.9-2-2.8 2 1.1-3.3-2.8-2H47z"/>
    </g>
  </g>
</svg>
