<svg xmlns="http://www.w3.org/2000/svg" viewBox="0 0 64 64">
  <defs><clipPath id="c"><circle cx="32" cy="32" r="30"/></clipPath></defs>
  <circle cx="32" cy="32" r="31" fill="#fff" stroke="#e5eaf5" stroke-width="2"/>
  <g clip-path="url(#c)">
    <path fill="#012169" d="M0 0h64v64H0z"/>
    <path fill="#fff" d="M0 0h31v6L6 32H0v-6L25 0h6v31h-6L0 6z"/>
    <path fill="#e4002b" d="M0 0h27v4L4 28H0v-4L23 0h4v27h-4L0 4z"/>
    <path fill="#fff" d="M12 0h7v32h-7zM0 12h31v7H0z"/>
    <path fill="#e4002b" d="M14 0h3v32h-3zM0 14h31v3H0z"/>
    <g fill="#fff">
      <path d="m44 40 1.7 5.2h5.5l-4.4 3.2 1.7 5.2-4.5-3.2-4.4 3.2 1.7-5.2-4.4-3.2h5.4z"/>
      <path d="m48 12 1.1 3.4h3.6L49.8 17l1.1 3.4-2.9-2.1-2.9 2.1 1.1-3.4-2.9-2.1h3.6z"/>
      <path d="m55 26 .9 2.8h3l-2.4 1.7.9 2.8-2.4-1.7-2.4 1.7.9-2.8-2.4-1.7h3z"/>
      <path d="m42 24 .9 2.8h3l-2.4 1.7.9 2.8-2.4-1.7-2.4 1.7.9-2.8-2.4-1.7h3z"/>
    </g>
  </g>
</svg>
