<svg xmlns="http://www.w3.org/2000/svg" viewBox="0 0 64 64">
  <defs><clipPath id="c"><circle cx="32" cy="32" r="30"/></clipPath></defs>
  <circle cx="32" cy="32" r="31" fill="#fff" stroke="#e5eaf5" stroke-width="2"/>
  <g clip-path="url(#c)">
    <path fill="#fff" d="M0 0h64v64H0z"/>
    <g fill="#b22234">
      <path d="M0 0h64v5H0zM0 10h64v5H0zM0 20h64v5H0zM0 30h64v5H0zM0 40h64v5H0zM0 50h64v5H0zM0 60h64v5H0z"/>
    </g>
    <path fill="#3c3b6e" d="M0 0h34v35H0z"/>
    <g fill="#fff">
      <circle cx="5" cy="5" r="1.1"/><circle cx="12" cy="5" r="1.1"/><circle cx="19" cy="5" r="1.1"/><circle cx="26" cy="5" r="1.1"/>
      <circle cx="8.5" cy="10" r="1.1"/><circle cx="15.5" cy="10" r="1.1"/><circle cx="22.5" cy="10" r="1.1"/><circle cx="29.5" cy="10" r="1.1"/>
      <circle cx="5" cy="15" r="1.1"/><circle cx="12" cy="15" r="1.1"/><circle cx="19" cy="15" r="1.1"/><circle cx="26" cy="15" r="1.1"/>
      <circle cx="8.5" cy="20" r="1.1"/><circle cx="15.5" cy="20" r="1.1"/><circle cx="22.5" cy="20" r="1.1"/><circle cx="29.5" cy="20" r="1.1"/>
      <circle cx="5" cy="25" r="1.1"/><circle cx="12" cy="25" r="1.1"/><circle cx="19" cy="25" r="1.1"/><circle cx="26" cy="25" r="1.1"/>
      <circle cx="8.5" cy="30" r="1.1"/><circle cx="15.5" cy="30" r="1.1"/><circle cx="22.5" cy="30" r="1.1"/><circle cx="29.5" cy="30" r="1.1"/>
    </g>
  </g>
</svg>
