<svg xmlns="http://www.w3.org/2000/svg" viewBox="0 0 64 64">
  <circle cx="32" cy="32" r="31" fill="#e9f7ff" stroke="#d8e6f5" stroke-width="2"/>
  <circle cx="32" cy="32" r="21" fill="#0b76c5"/>
  <path fill="#fff" d="M32 13a19 19 0 0 0 0 38 19 19 0 0 0 0-38Zm0 5c2.2 2.3 4 6.2 4.6 11h-9.2c.6-4.8 2.4-8.7 4.6-11Zm-13.5 16h8.1c.1 4 .8 7.6 2 10.4A14 14 0 0 1 18.5 34Zm8.1-4h-8.1a14 14 0 0 1 10.1-10.4c-1.2 2.8-1.9 6.4-2 10.4ZM32 46c-2.2-2.3-4-6.2-4.6-11h9.2c-.6 4.8-2.4 8.7-4.6 11Zm5.4-1.6c1.2-2.8 1.9-6.4 2-10.4h8.1a14 14 0 0 1-10.1 10.4Zm2-14.4c-.1-4-.8-7.6-2-10.4A14 14 0 0 1 47.5 30h-8.1Z"/>
</svg>
